<?xml version="1.0" encoding="utf-8"?>
<svg xmlns="http://www.w3.org/2000/svg" viewBox="0 0 256 256" width="256" height="256">
  <path fill="#ff114b" d="M238.524 72.424c-2.635-9.91-10.538-17.814-20.45-20.449-17.939-4.893-90.075-4.893-90.075-4.893s-72.261.126-90.201 5.018c-9.911 2.635-17.815 10.539-20.45 20.45C12.583 90.49 12.583 128 12.583 128s0 37.51 4.892 55.576c2.635 9.91 10.538 17.814 20.45 20.449 17.94 4.893 90.075 4.893 90.075 4.893s72.136 0 90.076-4.893c9.91-2.635 17.814-10.538 20.449-20.449 4.892-17.94 4.892-55.576 4.892-55.576s0-37.51-4.892-55.576z"/>
  <ellipse fill="#fff" cx="128" cy="128" rx="78.606" ry="41.288"/>
  <circle fill="#1a1a1a" cx="128" cy="128" r="31.329"/>
</svg>
